<svg xmlns="http://www.w3.org/2000/svg" width="1600" height="900" viewBox="0 0 1600 900">
  <defs>
    <linearGradient id="g1" x1="0" x2="1" y1="0" y2="1">
      <stop offset="0" stop-color="#60a5fa" stop-opacity="0.55"/>
      <stop offset="1" stop-color="#34d399" stop-opacity="0.25"/>
    </linearGradient>
    <radialGradient id="g2" cx="40%" cy="30%" r="70%">
      <stop offset="0" stop-color="#93c5fd" stop-opacity="0.75"/>
      <stop offset="1" stop-color="#0b1220" stop-opacity="0"/>
    </radialGradient>
    <filter id="blur" x="-20%" y="-20%" width="140%" height="140%">
      <feGaussianBlur stdDeviation="14"/>
    </filter>
  </defs>

  <rect width="1600" height="900" fill="url(#g2)"/>
  <g opacity="0.85" filter="url(#blur)">
    <path d="M-50 650 C 220 520, 460 760, 740 610 S 1280 480, 1700 610"
          fill="none" stroke="url(#g1)" stroke-width="10" stroke-linecap="round"/>
    <path d="M-80 520 C 260 380, 520 620, 820 470 S 1320 340, 1760 480"
          fill="none" stroke="url(#g1)" stroke-width="7" stroke-linecap="round" opacity="0.85"/>
    <path d="M-120 400 C 260 240, 520 470, 860 320 S 1400 210, 1820 360"
          fill="none" stroke="url(#g1)" stroke-width="5" stroke-linecap="round" opacity="0.7"/>
  </g>

  <!-- Waypoints -->
  <g opacity="0.8">
    <circle cx="260" cy="445" r="7" fill="#93c5fd"/>
    <circle cx="620" cy="515" r="7" fill="#6ee7b7"/>
    <circle cx="980" cy="430" r="7" fill="#93c5fd"/>
    <circle cx="1320" cy="520" r="7" fill="#6ee7b7"/>
  </g>

  <!-- Subtle grid -->
  <g opacity="0.12">
    <path d="M0 120 H1600 M0 240 H1600 M0 360 H1600 M0 480 H1600 M0 600 H1600 M0 720 H1600 M0 840 H1600"
          stroke="#e2e8f0" stroke-width="1"/>
    <path d="M120 0 V900 M240 0 V900 M360 0 V900 M480 0 V900 M600 0 V900 M720 0 V900 M840 0 V900 M960 0 V900 M1080 0 V900 M1200 0 V900 M1320 0 V900 M1440 0 V900"
          stroke="#e2e8f0" stroke-width="1"/>
  </g>
</svg>
